<svg preserveAspectRatio="xMidYMid meet" data-bbox="15 46.437 170 107.126" viewBox="15 46.437 170 107.126" height="200" width="200" xmlns="http://www.w3.org/2000/svg" data-type="color" role="presentation" aria-hidden="true"><defs><style>#comp-lgnwrfgz svg [data-color="1"] {fill: #FF7300;}</style></defs>
    <g>
        <path d="M102.509 56.963v-.2c.1-.4.5-.4.7-.3 3.8-2.5 7.901-4.4 12.301-5.9.1-.1.2-.2.4-.3 0 0 .1.1.2.1 2.5-.8 5.201-1.4 7.901-1.8-.3-.2-.6-.5-.8-.8-.2-.2.1-.5.3-.6s.3-.2.5-.3c-9.401 1.3-18.002 5.1-25.103 10.6.4.3.9.7 1.3 1 .801-.5 1.601-1 2.301-1.5z" fill="#F6B33B" data-color="1"></path>
        <path d="M184.617 93.263c-3.7-29.3-30.403-50.1-59.706-46.4.3.5.5.9-.2 1.5 0 0-.1.1-.1.2.2 0 .3 0 .5-.1 2.2-.3 4.3-.4 6.501-.4 25.803 0 48.205 19.2 51.405 45.5.9 6.9.3 13.6-1.4 19.9h.1c.2 0 .4.2.3.5-.1.2-.2.3-.4.4-.1 0-.2-.1-.3-.1-5.501 19.4-22.202 34.6-43.404 37.3-13.901 1.8-27.303-2.2-37.704-10.1-.4.3-.9.7-1.3 1 9.101 7 20.502 11.1 32.503 11.1 2.2 0 4.4-.1 6.701-.4 5-.6 9.701-1.9 14.101-3.8-.1-.2-.3-.4-.4-.6-.1-.3.3-.6.6-.5.4.1.7.4.9.7 12.601-5.7 22.402-16 27.603-28.6 0-.2 0-.3.1-.5 0 0 0 .1.1.1 3.3-8.3 4.6-17.3 3.5-26.7zm-14.502 43.4c-.1.4-.5.5-.8.5-.3.1-.5-.1-.5-.5s.5-.3.8-.4c.1-.1.5 0 .5.4z" fill="#F6B33B" data-color="1"></path>
        <path d="M78.506 106.663l-.3-2.7c-.1.1-.2.3-.3.3-.5 0-.6-.5-.9-.9.5-.3 1-.3 1.2.2-.2-2.9-.1-5.7.1-8.6-.1-.1-.1-.2-.1-.4s.1-.3.2-.4c.7-6.1 2.4-11.9 4.9-17.2-.2-.1-.3-.2-.4-.4 0-.5.5-.5.8-.7h.1c1.6-3.2 3.5-6.1 5.701-8.9-.6-.8-1.2-1.5.1-2.6.4.5.8.8 1.1 1.1.7-.9 1.5-1.7 2.3-2.6 0-.1-.1-.1-.1-.2-.1-.1.1-.6.6-.5.1 0 .1 0 .2.1 1.7-1.7 3.5-3.3 5.301-4.7-8.701-6.5-19.602-10.3-31.303-10.3-3.5 0-6.801.3-10.101 1 0 .1 0 .1-.1.2-.1.2-.2.4-.5.4-.2-.1-.3-.3-.3-.4C32.902 53.363 15 74.563 15 99.963v.6c.1-.2.2-.3.4-.3.5.1 1.1.1 1.2.8.1.5-.6.8-.8.9-.4.1-.6-.2-.8-.6 0 1.1.1 2.3.2 3.4.2-.1.4-.2.6-.2.4-.1.5.4.6.7 0 .5-.6.2-.6.6-.2-.1-.3-.1-.4-.2l.3 2.1h.2c.2.1.5.3.5.7 0 .2-.2.4-.5.4.4 2.1.8 4.1 1.4 6.1.1.1.2.3.3.4 0 .1 0 .2-.1.3.2.7.4 1.3.6 1.9.2 0 .4.1.7.3-.2.1-.4.2-.5.3 3.3 9.1 9.001 17 16.402 22.9.2-.1.4-.1.6-.1 1 .1 2 .3 2.9.7-.4.8-.7 1.2-1.2 1.2 4 2.8 8.301 5.2 13.001 6.8v-1.1c.2.5.2.9.2 1.2 5.501 1.9 11.401 3 17.602 3 11.701 0 22.502-3.8 31.303-10.3-11.101-8.5-18.801-21.1-20.602-35.8zm1.6-27c-.3 0-.4-.2-.4-.4 0-.3.2-.3.4-.3.3 0 .3.2.3.4.101.3-.099.4-.3.3zm2.601-26.5c.2 0 .5.2.4.5-.1.2-.2.5-.5.5s-.4-.3-.5-.5c.1-.3.3-.5.6-.5zm-.9-1.4c.2 0 .5-.1.5.2s-.3.4-.5.5c-.3 0-.5-.2-.5-.5s.3-.2.5-.2zm-1.4 12.1c.7-.1 1 .6 1.1 1.2.2.6-.5.8-.9 1.3-.5-.4-1-.9-1.2-1.6-.101-.7.699-.8 1-.9zm-2.301 7.3c.2-.7.7-.5 1.4-.4-.3.4-.2 1.2-1 1.2-.3 0-.5-.5-.4-.8zm-.2-21.7c.2 0 .2.2.2.4s-.1.3-.4.3c-.1-.1-.3-.2-.3-.3 0-.3.2-.4.5-.4zm-60.506 53.3c0 .3-.2.6-.4.5-.4-.1-.5-.5-.6-.7.2-.4.4-.5.7-.5.5 0 .3.4.3.7zm.8-12.4c-.2.1-.3-.1-.4-.4 0-.2.3-.1.4-.2s.2 0 .2.1c.1.2.1.4-.2.5zm8.801 16.3c.2-.5.8-.6 1.2-.8.3-.2.6.2.6.6-.1.7-.8.6-1.2.8-.3 0-.6-.3-.6-.6zm-1.7-35.9c.2 0 .5.2.4.4-.2.6-.7.6-1.3.4.3-.3.2-1 .9-.8zm-4.3 50.9c0 .2 0 .6-.4.6-.2-.1-.5-.2-.4-.5 0-.2.2-.4.4-.5.1.1.5.1.4.4zm1.1-23.1c-.2-.2-.5-.3-.4-.6.1-.2.3-.3.4-.4.1.2.3.4.3.5.1.2-.2.4-.3.5zm2.4 22.8c-.7.2-1.3-.1-1.7-.7-.2-.2.1-.5.3-.5.8-.1 1.2.5 1.6 1-.1.2-.2.2-.2.2zm.2-.7c-.1-.1-.3-.2-.3-.4 0-.1.2-.3.3-.3.1 0 .2.2.3.3.1.4-.1.5-.3.4zm.2-12.2c.1-.3.2-.3.5-.3.2 0 .3.2.2.4-.1.1-.3.3-.5.3-.2.1-.2-.2-.2-.4zm1.2 15.4c-.3 0-.7 0-.7-.4 0-.3.2-.6.6-.6.3 0 .6.3.6.6.1.5-.3.4-.5.4zm1.1 7.7c-.3-.2-.4-.5-.4-.8 0-.5.3-.4.6-.4s.5.2.4.5c0 .3-.4.4-.6.7zm1.2-2.2c-.5-.4-.7-1-.9-1.6-.1-.4.2-.6.6-.6.6.1 1 .6 1.4 1-.3.4-.5.9-1.1 1.2zm1.1-16.2c-.2-.4-.2-.9 0-1.4.2.5.3.9 0 1.4zm43.805-20.8c.1-.3.2-.6.6-.6.3 0 .2.3.2.4.1.5-.1.7-.4.8-.2-.1-.5-.3-.4-.6zm-6.801 7.9c.4-.1.7.2 1 .5.7 0 1.4-.1 2 .4-.8 1-1.3 1-2-.1h-.1c-.3-.1-.7.2-.9-.3-.1-.2-.1-.5 0-.5zm-.4-5.7c-.4.5-.8 1.2-1.3 1.7-.3.3-.5-.2-.6-.4-.2-.4 1.2-1.8 1.7-1.7.1 0 .2.1.2.4zm-.8 2.7c-.3.5-.5 1.1-1 1.3-.3.1-.8-.2-.7-.6.1-.6.6-.9 1.2-1.1.4-.2.3.3.5.4zm-.5-8c-.6-.1-1.1-.2-1.7-.3.7-.2 1.2-.4 1.7.3zm-1-1.7c-.3.2-.5.4-.7.6-.3 0-.4-.2-.4-.4.1-.4.3-.6.7-.6.2.1.3.3.4.4zm-1-37.7c.1 0 .4 0 .4.2 0 .3-.2.5-.5.5-.2 0-.2-.2-.3-.3 0-.3.1-.4.4-.4zm-.1 35.3c.3-.2.3.2.5.4 0 .3-.2.5-.5.5s-.5-.2-.5-.4c-.1-.5.3-.4.5-.5zm-.8-27.8c.3 0 .2.2.3.4 0 .3-.2.6-.5.7-.3.1-.3-.2-.5-.4.2-.2.3-.7.7-.7zm-2.301-7.9c.1-.4.5-.7 1-.6.4 0 .7.2.6.5-.1.4-.4.7-.8.8-.4-.1-.9-.4-.8-.7zm-.3 46.8c.7-.3.2.8.7 1 .5.5.2 1 .2 1.7-.7-.4-.3-1.1-.6-1.4-.1-.5-.8-1-.3-1.3zm-.3 4.6c1-.6 1.6-1.5 2.2-2.4.4-.6 1-.5 1.5 0s.9 1.1.2 1.5c-.6.4-.8.9-1.2 1.8-.1-.8-.2-1.2-.8-1.1-.5.1-1.1.2-1.5.7-.2.2-.4.2-.6 0-.2-.2 0-.4.2-.5zm5.001 17.7c-.5.4-.9.8-1.6 1.1.3-.7.2-1.6 1.4-1.5.6-.4.7.3 1.1.5-.3-.1-.6-.1-.9-.1zm-.3 17c-.3 0-.5-.1-.5-.5 0-.3.2-.5.4-.6.4-.1.4.3.4.5.1.4 0 .6-.3.6zm-2.9-32.6l-.3.3c-.3-.1-.3-.3-.3-.4 0-.2.1-.3.3-.3.3.1.3.3.3.4zm-1.601 24.9c-.3 0-.5-.1-.5-.5 0-.2.2-.3.4-.3.3 0 .4.1.4.4 0 .2-.1.4-.3.4zm.4 6.7c-.1.5-.7.4-.9.5-.6.1-1.1-.1-1-.5s.7-.5 1.2-.6c.4 0 .8.2.7.6zm-.3-30.4c-.1-.1-.3-.3-.3-.5s.2-.4.4-.3.3.2.3.5c0 .2-.2.3-.4.3zm-2.8-1.9c-.4-.2-.9-.5-1-1-.1-.2.1-.5.4-.6.5 0 .9.3 1 .7.2.3-.1.7-.4.9zm.9-4c.3-.2.5-.1.7.1.6.7.2 1.3-.5 1.9-.2-.7-1-1.3-.2-2zm-1.6 6.3c-1.3-.7-1.2-1.8-1-3 .2 1 1.8 1.5 1 3zm1.7 12.3c-.5.3-1 .1-1.9 0 .9-.2 1.4-.3 1.9 0zm-1-4.3c.5-.3 1-.2 1.5 0-.5.2-.9.2-1.5 0zm2.6 5.4c-.5.1-.8.2-1.2-.1.4-.2.8-.2 1.2.1zm-1.7-62.1c.4-.8.8.4 1.2 0-.3.5-.5 1-1 .5-.2-.1-.3-.2-.2-.5zm-.1 31.1c.2-.1.2.2.3.3 0 .5-.3.7-.7.7-.2 0-.4 0-.4-.2.1-.5.4-.7.8-.8zm-1.6-36.4c.4 0 .6.3.6.7 0 .2-.1.5-.3.5-.3-.1-.5-.3-.5-.7 0-.2-.1-.5.2-.5zm-.3 7.4c.1-.1.4-.4.6-.1.5.5.2 1-.3 1.6-.1-.7-.8-1-.3-1.5zm-.5 1.6l.3.1c.1.3.1.6-.4.8-.1-.3-.3-.7.1-.9zm0 28.9c.2 0 .2.2.3.4 0 .3-.2.5-.4.7-.1-.2-.3-.3-.4-.5.1-.3.2-.5.5-.6zm-1.5 4.7c.4-.4.6.2.8.5.3.3.8.4.6 1 .4-.1.8-.6 1.2 0 .3.5-.1.6-.3.8-.7.5-.7-.3-1-.6-.3 0-.5 0-.7.2-.6.4-1.1 0-1.2-.5-.2-.6.3-1 .6-1.4zm.3 11.8c-.1.1-.2.2-.4.3-.3 0-.5-.2-.5-.5 0-.1.2-.4.3-.3.4-.1.5.1.6.5zm-1.9-47.9c.3 0 .5.2.4.5 0 .2-.2.3-.3.3-.3 0-.3-.3-.4-.5 0-.2.1-.3.3-.3zm-.3 2.2c.2-.1.4 0 .4.1.1.6-.1.9-.7 1.1.1-.4-.2-.9.3-1.2zm-1 64.4c.2-.1.4.1.5.4-.2.1-.3.4-.5.5-.3.1-.3-.2-.4-.4-.201-.4.1-.5.4-.5zm-1.801-3.9c.2.7.2 1 0 1.4-.2-.5-.2-.8 0-1.4zm-1.3-67.2c.1 0 .3.1.3.2.1.2 0 .3-.1.3-.3 0-.5 0-.5-.2s.2-.3.3-.3zm.4 37.4c0 .2-.1.3-.3.4-.2 0-.3-.2-.3-.3 0-.2.1-.4.3-.4.3-.1.3.1.3.3zm-1-5.6c0 .1.1.2.1.3 0 .2-.1.4-.4.4-.1-.1-.2-.2-.2-.4.2-.1.3-.2.5-.3zm-1.2-31.2c.3-.1.3.2.3.5 0 .2 0 .5-.3.5-.2 0-.5-.2-.5-.3 0-.4.2-.6.5-.7zm-.9 45.4c2-.2 2.8.4 3.1 2.3-.8-1-1.5-1.8-2.6-.7-.4.4-.5-.1-.7-.3-.4-.2-.5-.6-.4-1 0-.3.3-.2.6-.3zm1.1 23.1c.2.2-.2.5-.4.6-.6.3-.6-.3-1.1-.7.8-.1 1.2-.3 1.5.1zm-.2-6.7c.1.8.1 1.2-.1 1.6-.2-.5-.2-.9.1-1.6zm0-4.7c.4-.4 1.2.1 1.5-.7 0 0 .1.1.2.3-.4.8-1.2.3-1.7.4zm-7.101-50c.1-.7.9-.5 1.2-1 .2.2.5.4.4.6-.3.4-.8.7-1.1 1-.6-.1-.6-.4-.5-.6zm.9 4.2c-.4-.6-.9-.7-.5-1.4.1-.1.3-.3.4-.2.5.5.2.9.1 1.6zm-6.4 56.9c.5-.4.5-1.1 1.2-1.4.6.8.8 1.5-.1 2.2-.3.2-.5.4-.8.1-.4-.3-.6-.7-.3-.9zm-.8-6.2c.3 0 .5.1.6.4s-.2.4-.4.5c-.3 0-.5-.2-.6-.4-.2-.4.1-.5.4-.5zm.7 12.6c-.2.4-.5.8-.8 1.2 0-.9 0-1.6-1.2-1.4-.7.1-.5-.6-.4-.8.3-.5.8-1.1 1.5-.7.2.1.4 0 .5.1 1 .3 1 .5.4 1.6zm1.8-3c-.1.3-.5.1-.7.2v.9c-.8-.6-1.5-1-2.1-1.6-.3-.3-.8-.8-.3-1.2.3-.2.8-.6 1.4-.1.5.4 1 .7 1.3 1.2.2.1.5.3.4.6zm.6-24.3c-.2-.8-1-1-.8-1.7.1-.3.4-.2.6-.1.7.3.5.9.2 1.8zm1.7 8.5c.2.7.2 1.3 0 2.1-.3-.8-.2-1.5 0-2.1zm0 10.9c-.2-.7-.2-1.1 0-1.5.2.5.2.9 0 1.5zm2.8 12.7c-.1.5-.6 1-1.1 1-.3 0-.9-.5-.8-.9.1-.5.6-.6 1.1-.5.4 0 1-.1.8.4zm-.7-9c-.2-.1-.4-.3-.6-.5-.3-.3-1-.6-.7-1 .4-.6 1.2-.2 1.8-.1.5 0 .7.7 1.1.7-.199.8-1.2 1.2-1.6.9zm1.301-24.6c-.2-.5-.9-.8-.4-1.3.1-.1.3-.5.6-.1.5.5 0 .8-.2 1.4zm1.7 34.7c-.2.1-.5.1-.5-.2-.1-.7.5-.8 1-1 .1.6.1 1.1-.5 1.2zm-.5-26.9c.5-.3.9-.2 1.2 0h-1.2zm.7-29.3c-.2-.6.2-1 .7-1.1.9-.1 1.6.9 1.6 2 0 .9-.8.6-1.3.7-.7.2-1-.4-1-1.6zm1.5 3.4c-.3-.1-.7-.3-.5-1 0 0 0-.2.3-.1.3.2.9.1.7.7 0 .3-.2.6-.5.4zm.8 49.5c-.4.1-.6-.1-.7-.4 0-.3.2-.6.5-.6.2 0 .5.3.6.4.1.4-.1.5-.4.6zm1.3 3.1c-.3 0-.5-.3-.4-.5s.3-.4.6-.4c.3-.1.3.3.4.5-.2.2-.3.4-.6.4zm.6-4.2c-.4-.1-.9-.2-.9-.8 0-.4.3-.6.7-.6.5 0 .7.3.7.8-.1.3-.2.7-.5.6zm1.3-4.2c-.5.5-1.2.9-1.9 1.2-.7-.3-1-1-1.1-1.6s.6-.4 1-.4c.5-.1 1 0 1.4-.1.3-.1.6-.3.8 0 .1.2.1.6-.2.9zm1.4 13.1c-.3-.5-.2-1 0-1.6.2.5.3 1 0 1.6zm.8 1c.4-.3.7-.1 1.3-.1-.499.4-.899.3-1.3.1zm1.301-9.6c-.8-.6-2 .6-2.6-.6-.5-1-.5-1.8.4-2.7 0 .9.1 1.6.1 2.4.5.1.9-.3 1.3-.5-.1-.4.2-.7.4-1 .1.1.3.1.3.2.2.4-.1.6-.4.8 0 .4-.1.8.5.9.2 0 0 .5 0 .5zm1.8 2c-.1.7 1.4 1 .3 1.9-.3.3-.4.2-.6-.2-.4-.6-.8-1.1.3-1.7zm1.4-4.4c-.2.2-.4.3-.7 0-.5-.7-.1-1.2.5-1.6.4.5.9 1 .2 1.6zm.6 1.6c.3 0 .4.4.4.8 0 .6 0 1.2-.3 1.8-.3.3-.6.4-.9.1-.3-.2-.1-.5.1-.7.1-.5.3-.9.3-1.4 0-.2.1-.6.4-.6zm0 15.4c-.2.5-.7 1.1-1.5.8-.9-.2-.4-.7-.3-1.1h-.5c.6-.2 1.1-.6 1.6 0 .4-.3.9-.2.7.3zm1.4-.6c-.1.2-.2.3-.4.2-.5-.5-1-1-.9-1.8.3.1.4.1.4.1.4.5 1.2.7.9 1.5zm.2-4.1c-.5-.4-.9-.8-1.3-1-1-.5-.6-.9.1-1.2.1-.6-.7-1.3.1-1.8.4-.3.7.5.4 1.2-.1.2-.2.4-.2.6.7.4 1.3 1 .9 2.2zm-.8-6c.2 0 .4.1.3.3 0 .2-.2.3-.3.5-.1-.2-.3-.3-.4-.4-.1-.2.2-.4.4-.4zm-.6-7.9c-.5-1.1.6-1.8.7-2.7-1 .6-1.6 1.6-2.5 2.3-.4.3-.8.7-1.3.9-.6.2-1 .5-1.5-.1-.2-.3-.4-.7-.2-.8.5-.4 1 0 1.5.1.3-1-.3-2.5 1.5-2.7.3 0 .1-.6-.1-.9-.5-.6-.9-1.3-.5-2.2.1-.3-.2-.7.3-.8.4-.1.8.1 1 .4.4.8 1.1 1.4 1.8 2.1.6.5-.3 1.2.1 1.8.4-.2.6-.8 1.1-.5.4.2.1.7 0 1-.2 1.1.4.3.7.3 0-.1.1-.1.1-.2.3-.4.6-.5 1.1-.5 0 0 .1.2.1.4-.2.7-.7.2-1.1.3.1 1-.2 1.6-1.3 1.3-.6-.3-1 .3-1.5.5zm2.5 4c.4-.1.3.3.4.5 0 .3 0 .5-.4.5s-.5-.3-.8-.5c.3-.3.5-.5.8-.5zm2.4 10c-.2 1.4-1.2 1.9-2.3 2.4-.2.1-.6.3-.8-.1-.1-.3-.3-.7.2-1 .7-.4 1.4-1 2-1.6.4-.4.8-.9 1.5-.4-.199.2-.7.2-.6.7zm-.7-17.6c-.2-.2 0-.5.2-.7.4-.3.8 0 .9.2.6 1 1.7 1.8 1 3.3-.899-.7-1.299-1.9-2.1-2.8zm2.001 15.3c.8-.1.5.4.6.7-.4-.1-.2-.6-.6-.7zm.2-32.8c-.5 0-.3-.3-.4-.6-.1-.5.3-.8.6-.9.1 0 .7.1.6.4 0 .5-.4.8-.8 1.1zm2.9 42.6c-.8.3-1.5.3-2.4.2.5-1.1 1.3-1.3 2.3-1.2.3 0 .5.2.5.5.1.3-.1.4-.4.5zm1.7-44.4c-.4-.3-.8-.6-1.4-1-.3.9-.5 1.6-.7 2.3-.1.5-.5.6-.7.6-.5 0-.3-.5-.2-.7.2-1 .1-2.1 1.4-2.7 1.2-.6 1.7.2 2.3.8.2.2.1.4 0 .6-.2.3-.4.4-.7.1zm1.1 28.5c-.3.1-.4-.1-.4-.3 0-.3.3-.5.6-.6.3 0 .5.1.5.3 0 .4-.4.5-.7.6zm1.2-24.6c-.2.1-.4-.2-.5-.2.2-.5.3-.8.6-.8.2 0 .3.2.3.4s-.1.5-.4.6zm1 2.4c-.2-.6-.8-.9-.4-1.5.1-.1.5-.1.6.1.2.4.701.9-.2 1.4zm.701-14.9c0 .2-.2.3-.4.2-.5-.2-.9-.6-.6-1.2.499.2 1.1.3 1 1zm.6.6c.2-.6.7-.8 1.2-1 .1 0 .4.3.3.5-.3.5-.7.9-1.2 1.1-.2-.1-.4-.4-.3-.6zm.1 1.4c.1-.2.3-.3.6-.2.9.2 1.4 1 2.2 1.2.2-.3.4-.7.6-1 .3-.4.7-.4 1.1-.1.4.2.8.5.6 1-.3.7-.4 1.4-1 2-.5-.4-1-.8-1.3-1.4-.3-.2-.5-.3-.9-.2-.4.1-1.1.7-.8-.5.1-.3-.4-.3-.8-.3-.2-.1-.5-.2-.3-.5zm2.8 45.7c.2 0 .3.1.3.3 0 .3-.1.5-.5.4 0 0-.3 0-.2-.2 0-.3.1-.5.4-.5zm-.3-6.3v2.6c-.4-1-.1-1.8 0-2.6zm-.4-22.4c.4-.2.8-.2 1.2 0-.4.3-.8.2-1.2 0zm.2-5.8c0 .2-.1.4-.3.3-.3-.1-.6-.3-.6-.7l.3-.6c.2.4.6.6.6 1zm-.8-6.4c.5.5 1 .8 1.2 1.6-.8-.3-1.3-.5-1.2-1.6zm1.6 2.4c0-.1.1-.2.2-.3.1.2.3.3.4.5 0 .1-.2.2-.3.3-.4-.1-.3-.3-.3-.5zm-2.7 1.8c-.1-.4.4-.4.6-.5.3-.1.5.2.5.5s-.2.6-.5.6c-.3.1-.6-.2-.6-.6zm.8 23.4c-.3-.1-.6-.3-.4-.5.3-.6.8-.2 1.6-.3-.6.5-.6 1.1-1.2.8zm1.9 18.8c0 .3-.3.4-.5.5-.3-.1-.3-.3-.3-.5 0-.3.1-.5.5-.4.3 0 .3.2.3.4zm.2-2.9c-.3 0-.2-.2-.2-.4 0-.3.2-.4.4-.4s.4 0 .3.3c0 .2-.2.5-.5.5zm.7-6.5c-.2-.3-.2-.6 0-1.1.2.5.2.8 0 1.1zm.9-33.1c0-.3.2-.6.5-.6.4.1 1 .3 1 .8 0 .4-.6.6-.9.6-.2.1-.6-.3-.6-.8zm2.4 41.3c-.1.7-.5 1.3-1.1 1.7-.4.2-.5-.5-.9-.8.3-.6.8-1 1.3-1.4.3.2.8 0 .7.5zm-1.3-2.5c0-.3.3-.3.5-.3.4 0 .3.4.3.6 0 .2-.1.4-.4.4-.2-.1-.4-.3-.4-.7zm.4-23c-.2-.4-.6-.7-.3-1.2.3-.4.7-.4 1.3-.2-.3.6-.5 1.1-1 1.4zm2.1 22.6c.3-.1.4-.2.6-.3.1.3.7.1.6.6 0 .3-.1.5-.4.5-.3-.1-.4-.4-.8-.8zm1.001 2.2c-.4-.1-.2-.4-.3-.6 0-.2 0-.5.3-.4.2 0 .5.2.5.5-.1.3-.2.5-.5.5z" fill="#F6B33B" data-color="1"></path>
        <path d="M82.807 82.163c.1.1.1.3.1.5 0 .3-.1.5-.4.5-1.2 3.6-2.1 7.3-2.5 11.1-.4 4-.4 8 .1 12.2 1.8 14.4 9.401 26.8 20.202 34.9 11.301-8.9 18.802-22.3 19.902-37.4-.2-.1-.3-.4-.3-.7 0-.4.2-.5.4-.6 0-.9.1-1.8.1-2.7 0-2.7-.2-5.4-.6-8-.2.2-.4.3-.7.1-.1-.1-.2-.3-.2-.3.2-.2.5-.4.8-.3-.2-.9-.3-1.9-.5-2.8-.1-.1-.1-.2-.1-.4v-.1c-1-4.5-2.6-8.8-4.7-12.8-.2 0-.3-.1-.4-.3-.1-.2 0-.3 0-.4-.2-.4-.5-.8-.7-1.2l-.5.5c-.5-.6-.5-1.1-.1-1.5-2.7-4.5-6.201-8.6-10.101-12.1-.4.5-.8 1-1.3 1.4-.3.3-.3-.1-.4-.2-.2-.2-.3-.4 0-.6.4-.3.7-.7 1.1-1.1-.6-.5-1.1-.9-1.7-1.4-8.002 6.1-14.103 14.3-17.503 23.7zm9.901-10.4c.3 0 .5.3.5.6-.1.3-.2.6-.5.6s-.5-.3-.5-.7c0-.3.2-.5.5-.5zm.5 3.2c0 .1-.2.3-.3.5-.2-.2-.3-.3-.4-.5s.1-.3.3-.3c.2 0 .4.1.4.3zm-1 4.3c.1-.2-.2-.7.3-.6.3 0 .5.3.5.7 0 .3-.1.7-.4.7-.4.1-.5-.4-.4-.8zm-2.801 2.6c.1-.2.3-.3.4-.2.4.4.2.8 0 1.5-.3-.6-.7-.8-.4-1.3zm-6.7 5.1c-.2-.3-.2-.6 0-1.1.2.5.2.8 0 1.1zm1-2.7c-.4-.2-.6-.6-.5-1 .1-.7.6-1.2 1.1-1.6 0 0 .4.2.4.3-.2.7.2 1.6-.5 2.1-.2 0-.3.1-.5.2zm1.3 2.3c-.3 0-.5-.1-.5-.4 0-.1 0-.4.3-.2.2.1.4.2.5.3 0 .1-.1.3-.3.3zm3.3-10c-.3 0-.4-.3-.4-.7 0-.1 0-.4.3-.3.3 0 .5.3.5.6 0 .2-.1.5-.4.4zm1 15.3c-.1.1-.4 0-.5-.1-.3-.3-.1-.6.3-1.1 0 .6.7.8.2 1.2zm1.201-7.3c.3.7 0 1.2-.4 1.7-1.001-.9-.001-1.2.4-1.7zm-.401 39.5c-.4 0-.3-.5-.3-.7-.1-.4.2-.6.5-.7.4.1.6.3.6.7-.199.3-.399.7-.8.7zm-.1-43.6c-.3.1-.5-.1-.5-.5.1-.5.5-.6.9-.6.2 0 .4 0 .4.3-.099.5-.399.7-.8.8zm1.301 1.4c.9-.8 1.2.6 2 .7-.6.2-.9 1.2-1.6.4-.3-.3-.8-.8-.4-1.1zm.7 2.7c-.2 0-.4 0-.4-.3 0-.2.2-.3.4-.3s.4.1.4.3-.2.2-.4.3zm1.6 7.4c-.2-.6-.2-1.1 0-1.7.2.6.3 1.1 0 1.7zm-.1-7.5c-.3 0-.4-.3-.5-.5-.1-.3.2-.5.4-.5.3-.1.4.2.5.5.1.2-.1.5-.4.5zm6.7 43.9c-.3 0-.4-.2-.5-.4-.1-.2-.1-.3.2-.4.3 0 .5 0 .5.4.001.2.001.4-.2.4zm1.801 3.2c-.3-.1-.5-.2-.5-.5s.3-.3.5-.2c.2 0 .5-.1.5.2s-.3.4-.5.5zm-.5-5.3c0-.2.1-.4.3-.4s.4.1.4.3c0 .3-.1.4-.4.4-.1 0-.3-.1-.3-.3zm1.2 6.9c-.2 0-.3-.3-.3-.5s.1-.4.4-.4c.2 0 .3.2.3.8 0-.1-.2.1-.4.1zm-.1-44.1c-.5-.2-1.2-.5-.9-1.4.4-.9.8-1.7 1.8-2.1.2 1-.2 1.8-.3 2.7 0 .2.1 1-.6.8zm-.1-9.1c.3.5 1 1 .2 1.6-.3.2-.7.3-1-.1-.4-.9.6-.9.8-1.5zm1.1 0c-.3 0-.4-.3-.5-.5 0-.3.2-.4.4-.4.4-.1.4.2.4.5 0 .2 0 .4-.3.4zm.7 1.4c.2.6 0 1-.6 1.2-.3-.7.1-1 .6-1.2zm-.4 39.8c-.1-.1-.3-.2-.4-.3-.1-.3.2-.2.3-.2s.3.2.4.3c-.2.1-.3.3-.3.2zm.4-15c-.9-1.7.5-2 1.2-2.7 1-.9 1.1.4 1.7.5.3.1.2.7.1 1-.1.5-.7.3-.9.2-1-.5-1.6 0-2.1 1zm3.5-22.4c-.1.2-.3.4-.4.6-.2-.2-.4-.2-.4-.5s.1-.6.4-.6c.3.1.5.3.4.5zm-.1-2.4c0-.2.2-.3.3-.3.2 0 .3.1.3.4l-.3.3c-.1-.1-.2-.2-.3-.4zm1.2 4.8c-.3.6-.6 1.1-1.2 1.2-.4.1-.6-.2-1.2-2 .8.7 1.6.8 2.4.8zm-1.8 26.8c-.4-.1-.6-.4-.5-.8 0-.2.2-.3.3-.5.2.3.5.5.7.8.1.3-.3.4-.5.5zm1-6.1c-.3 0-.5 0-.5-.4 0-.3.2-.4.5-.4.2 0 .4.1.5.1-.1.4-.2.7-.5.7zm.3-17.1c-.3-.1-.6-.3-.6-.6 0-.5.5-.5.7-.6.4-.2.3.2.3.5.2.4 0 .6-.4.7zm.6-8.5c-.1-.1-.2-.3-.2-.4-.1-.3.2-.4.4-.4s.3 0 .4.2c-.1.3-.3.4-.6.6zm1.3 30.5c-.3-.2-.4-.4-.4-.8 0-.2 0-.5.3-.4s.6.3.5.6c.001.3-.099.5-.4.6zm3.801 5.9c-.2 0-.3-.3-.4-.5 0-.3.2-.5.5-.5s.3.3.3.5c0 .3 0 .6-.4.5zm1.4-2.2c0 .1-.2.3-.4.4-.1-.2-.3-.3-.4-.5 0-.3.2-.3.3-.3.4.1.6.2.5.4zm1.3-10.3c-.1.3-.3.4-.6.2-.3-.3-.6-.2-.9-.1-1.2.1-.9-1-.6-1.2.8-.7 1-1.7 1.5-2.6.1-.3.2-.5.5-.4.3 0 .3.2.3.4.4 1 1.1 2.1-.6 2.6-.2.1-.5.5.1.6.2.1.4.2.3.5zm2.2 1.4c-.3.4 0 1.5-.6 1.4s-1.5-.9-1.5-1.6 1-.9 1.6-1.1c.5-.1.5.7.5 1.3zm-2.5-21.6c.4-.4.5 0 .6.2.8.8.1 1.2-.4 1.7-.3-.6-1-1.1-.2-1.9zm-.1 5.1c.1.4-.3.9-.4.9-.5-.1-.6-.6-.7-1-.1-.3.2-.5.5-.5.4-.1.6.1.6.6zm-2.8-11.1c.2 1.3.2 1.3 1 .8.3-.2.6-.1.8.1.3.3.3.7 0 1.1-.2.2-.3.7-.8.5-.8-.2-1.3-1.3-1-2.5zm-.6 26.1c.5.3.5.7.3 1.3-.5-.3-.9-.5-.9-1 0-.1.5-.4.6-.3zm-.5-21.5c.1.3-1.4 2.2-1.7 2.1-.1-.2-.4-.3-.5-.5-.2-.5 1.3-2.1 1.8-1.9.2 0 .3.1.4.3zm-1.1-3.2c-.2.2-.4.2-.5 0-.2-.5-.6-1 .2-1.4-.3.6.9.7.3 1.4zm.9-2.2c.1.7.1 1.2-.3 1.2-.3.1-.4-.3-.4-.7v-.1c-.3-.5-.5-1 0-1.6.1-.1.2-.2.3 0 .3.4.4 1 .4 1.2zm-1.1-6.4c.3-.1.7.1.7.5 0 .5-.5.7-.7.8-.5 0-.8-.2-.8-.5-.101-.5.3-.7.8-.8zm-3.101.8c.3 0 .6.3.6.6.1.3-.2.6-.4.6-.4.1-.5-.4-.7-.6.1-.3.2-.6.5-.6zm2.401 3.9c-1 .3-1.2.9-1.1 1.8.1.8-.4 1.2-.9 1.7-.5.4-1.1.5-1.6.3s-.2-.9-.1-1.3c.1-.5.3-1 .5-1.4.699-2 1.399-2.3 3.2-1.1zm-3.601-2.3c0 .1-.2.2-.3.2-.5.1-.6-.3-.9-.9.7.2 1.1.3 1.2.7zm-.9 8.3c0 .3-.1.5-.3.6-.2.1-.4-.2-.4-.4-.1-.3.2-.4.4-.6.2.1.3.1.3.4zm-.9-13.6c.2 0 .4.1.4.3 0 .2-.2.4-.4.4s-.3-.2-.3-.2c-.1-.5.1-.5.3-.5zm-1.3 6.4c.5.1.6.6.6 1 0 .2-.3.4-.4.6-.4-.4-.6-.8-.7-1.2-.1-.3.2-.4.5-.4zm-1 2c.6.2 1.3-.3 2 .4-.8 0-1.4-.1-2-.1-.2.2-.4.4-.7.2-.2-.1-.2-.4-.1-.6.3-.2.6-.2.8.1zm-1.3-6c.3 0 .6.2.6.5 0 .2-.2.4-.4.4-.3 0-.5-.2-.5-.5 0-.2.1-.4.3-.4zm-.1 24.3c.1.5 0 1-.3 1.5-.4-.8.4-1 .3-1.5zm-.3 2.8c.3 0 .4.2.3.4 0 .2-.1.4-.3.3-.2-.1-.5-.2-.4-.6.1-.1.3-.1.4-.1zm-.7-18.6c.3 0 .5.2.4.5s-.1.6-.5.7c-.3-.2-.5-.4-.4-.7-.001-.3.199-.5.5-.5zm-.501-4.3c.1.4-.2.5-.6.5s-.7 0-.9-.4c.2-.3.3-.7.7-.7.3.1.7.2.8.6zm-1.6 7.5c0-.3.2-.4.4-.3.3 0 .4.1.4.4-.1.2-.2.4-.8.4v-.5zm.3-12.8c.1 0 .2.2.2.2 0 .3-.2.5-.5.5-.3.1-.3-.1-.3-.3.1-.3.3-.5.6-.4zm.5 14.8c.3-.1.7.3.7.5-.2.6-.9.8-1.3 1.1-.2.2-.3-.1-.4-.3.1-.6.3-1.2 1-1.3zm-1.3 9.2c.2-.4.5-.7.7-1 .2.2.7.4.5.8s-.5.7-.8 1.1c-.5-.3-.5-.6-.4-.9zm.4 1.7c-.1.3-.2.6-.4.6-.5-.2-1-.5-1.1-1.2 0-.3.2-.4.4-.4.6.1.7.7 1.1 1zm-1.6-28.4c.5.1.5.6.6.9.1.4-.4.4-.6.6-.4-.2-.4-.6-.5-1 0-.2.1-.6.5-.5zm-1.2 12.8c.1-.3.4-.8.7-.7.5.2.7.6.5 1.2-.1.4-.4.7-.7.8-.4-.4-.6-.8-.5-1.3z" fill="#F6B33B" data-color="1"></path>
    </g>
</svg>
